<svg xmlns="http://www.w3.org/2000/svg" viewBox="0 0 849.6 329.92" width="5rem">
        <defs><style>@import 'https://fonts.googleapis.com/css?family=Didact+Gothic&amp;display=swap';text{font-size:296.85px;font-family:DidactGothic-Regular,Didact Gothic}#logo:is(.dark *){fill:#fff}#layer_2,#layer_3{fill:#00ff78}#logo{fill:#000}#layer_2,#layer_3{fill:#00ff78;pointer-events:all;opacity:0}.animate-glitch1{animation:glitch1 2s infinite}.animate-glitch2{animation:glitch2 2s infinite}#layer_2{-webkit-animation:glitch-1 ease-out 1.8s infinite;animation:glitch-1 ease-out 1.8s infinite}#layer_3{-webkit-animation:glitch-2 ease-out 1.8s infinite;animation:glitch-2 ease-out 1.8s infinite}@-webkit-keyframes glitch-1{0%{transform:translate(-40px,-50px)}5%{transform:translate(-40px,-20px)}10%{transform:translate(-20px,-50px)}15%{transform:translate(-10px,-50px)}20%{transform:translate(-10px,-40px)}25%{transform:translate(-20px,-50px)}30%{transform:translate(-30px,-20px)}35%{transform:translate(-20px,-50px)}40%{transform:translate(-40px,-30px)}45%{transform:translate(-60px,-50px)}50%{transform:translate(-30px,-50px)}55%{transform:translate(-60px,-10px)}60%{transform:translate(-60px,-10px)}65%{transform:translate(-40px,-50px)}70%{transform:translate(-10px,-10px)}75%{transform:translate(-60px,-20px)}80%{transform:translate(-50px,-50px)}85%{transform:translate(-50px,-40px)}90%{transform:translate(-60px,-20px)}95%{transform:translate(-30px,-30px)}100%{transform:translate(-40px,-20px)}}@keyframes glitch-1{0%{transform:translate(-40px,-50px)}5%{transform:translate(-40px,-20px)}10%{transform:translate(-20px,-50px)}15%{transform:translate(-10px,-50px)}20%{transform:translate(-10px,-40px)}25%{transform:translate(-20px,-50px)}30%{transform:translate(-30px,-20px)}35%{transform:translate(-20px,-50px)}40%{transform:translate(-40px,-30px)}45%{transform:translate(-60px,-50px)}50%{transform:translate(-30px,-50px)}55%{transform:translate(-60px,-10px)}60%{transform:translate(-60px,-10px)}65%{transform:translate(-40px,-50px)}70%{transform:translate(-10px,-10px)}75%{transform:translate(-60px,-20px)}80%{transform:translate(-50px,-50px)}85%{transform:translate(-50px,-40px)}90%{transform:translate(-60px,-20px)}95%{transform:translate(-30px,-30px)}100%{transform:translate(-40px,-20px)}}@-webkit-keyframes glitch-2{0%{transform:translate(20px,30px)}5%{transform:translate(10px,10px)}10%{transform:translate(10px,40px)}15%{transform:translate(20px,10px)}20%{transform:translate(10px,30px)}25%{transform:translate(30px,30px)}30%{transform:translate(50px,20px)}35%{transform:translate(40px,20px)}40%{transform:translate(50px,50px)}45%{transform:translate(20px,20px)}50%{transform:translate(50px,10px)}55%{transform:translate(30px,30px)}60%{transform:translate(10px,10px)}65%{transform:translate(30px,50px)}70%{transform:translate(10px,40px)}75%{transform:translate(50px,50px)}80%{transform:translate(40px,50px)}85%{transform:translate(20px,20px)}90%{transform:translate(30px,30px)}95%{transform:translate(40px,40px)}100%{transform:translate(40px,20px)}}@keyframes glitch-2{0%{transform:translate(20px,30px)}5%{transform:translate(10px,10px)}10%{transform:translate(10px,40px)}15%{transform:translate(20px,10px)}20%{transform:translate(10px,30px)}25%{transform:translate(30px,30px)}30%{transform:translate(50px,20px)}35%{transform:translate(40px,20px)}40%{transform:translate(50px,50px)}45%{transform:translate(20px,20px)}50%{transform:translate(50px,10px)}55%{transform:translate(30px,30px)}60%{transform:translate(10px,10px)}65%{transform:translate(30px,50px)}70%{transform:translate(10px,40px)}75%{transform:translate(50px,50px)}80%{transform:translate(40px,50px)}85%{transform:translate(20px,20px)}90%{transform:translate(30px,30px)}95%{transform:translate(40px,40px)}100%{transform:translate(40px,20px)}}</style><script>window.addEventListener('load', function() {
const logo = document.getElementById('logo');
const layer2 = document.getElementById('layer_2');
const layer3 = document.getElementById('layer_3');
logo.addEventListener('mouseenter', function() {
layer2.style.opacity = '1';
layer3.style.opacity = '1';
layer2.classList.add('animate-glitch1');
layer3.classList.add('animate-glitch2');
});
logo.addEventListener('mouseleave', function() {
layer2.style.opacity = '0';
layer3.style.opacity = '0';
layer2.classList.remove('animate-glitch1');
layer3.classList.remove('animate-glitch2');
});
});</script></defs>
        <g id="layer_2">
          <path d="M 147.831 -138.926 L 147.831 -5.343 C 147.831 7.124 145.258 18.256 140.113 28.052 C 134.968 37.848 127.744 45.517 118.443 51.058 C 109.142 56.599 98.554 59.37 86.68 59.37 L 29.091 59.37 L 29.091 40.965 L 86.68 40.965 C 98.752 40.965 108.598 36.611 116.217 27.904 C 123.836 19.196 127.645 8.114 127.645 -5.343 L 127.645 -20.483 C 121.906 -12.567 114.881 -6.383 106.569 -1.93 C 98.257 2.523 89.154 4.75 79.259 4.75 C 66 4.75 54.126 1.583 43.637 -4.75 C 33.148 -11.083 24.935 -19.889 18.998 -31.169 C 13.061 -42.45 10.093 -55.313 10.093 -69.76 C 10.093 -84.009 13.012 -96.724 18.85 -107.905 C 24.688 -119.086 32.802 -127.843 43.192 -134.176 C 53.581 -140.509 65.406 -143.675 78.665 -143.675 C 88.758 -143.675 98.01 -141.449 106.421 -136.996 C 114.832 -132.543 121.906 -126.26 127.645 -118.146 L 127.645 -138.926 L 147.831 -138.926 Z M 78.665 -13.655 C 88.164 -13.655 96.625 -16.03 104.046 -20.779 C 111.467 -25.529 117.256 -32.159 121.412 -40.668 C 125.567 -49.178 127.645 -58.776 127.645 -69.463 C 127.645 -80.15 125.567 -89.748 121.412 -98.257 C 117.256 -106.767 111.467 -113.397 104.046 -118.146 C 96.625 -122.896 88.164 -125.271 78.665 -125.271 C 69.364 -125.271 61.052 -122.896 53.73 -118.146 C 46.407 -113.397 40.668 -106.817 36.513 -98.406 C 32.357 -89.995 30.279 -80.447 30.279 -69.76 C 30.279 -58.875 32.357 -49.178 36.513 -40.668 C 40.668 -32.159 46.407 -25.529 53.73 -20.779 C 61.052 -16.03 69.364 -13.655 78.665 -13.655 Z M 354.437 -138.926 L 373.732 -138.926 L 328.611 0 L 307.534 0 L 273.693 -106.569 L 237.181 0 L 216.995 0 L 171.28 -138.926 L 192.653 -138.926 L 228.275 -28.498 L 264.491 -138.926 L 284.083 -138.926 L 319.111 -29.091 L 354.437 -138.926 Z M 409.648 0 L 409.648 -138.926 L 429.833 -138.926 L 429.833 0 L 409.648 0 Z M 564.013 0 L 515.329 -71.541 L 498.409 -55.214 L 498.409 0 L 478.223 0 L 478.223 -215.513 L 498.409 -215.513 L 498.409 -80.743 L 559.263 -138.926 L 585.386 -138.926 L 529.281 -84.899 L 586.573 0 L 564.013 0 Z M 618.632 0 L 618.632 -138.926 L 638.818 -138.926 L 638.818 0 L 618.632 0 Z" transform="matrix(1, 0, 0, 1, 5.52, 250.660004)" style="text-wrap-mode: nowrap;"></path>
          <polygon points="60.34 198.02 84.8 150.91 107.45 198.02 60.34 198.02"></polygon>
          <polygon points="609.737 82.257 634.198 35.147 656.847 82.257 609.737 82.257"></polygon>
          <polygon points="402.151 82.257 426.612 35.147 449.26 82.257 402.151 82.257" style="transform-box: fill-box; transform-origin: 50% 50%;" transform="matrix(-1, 0, 0, -1, -0.000066, 0.000002)"></polygon>
        </g>
        <g id="layer_3">
          <path d="M 147.831 -138.926 L 147.831 -5.343 C 147.831 7.124 145.258 18.256 140.113 28.052 C 134.968 37.848 127.744 45.517 118.443 51.058 C 109.142 56.599 98.554 59.37 86.68 59.37 L 29.091 59.37 L 29.091 40.965 L 86.68 40.965 C 98.752 40.965 108.598 36.611 116.217 27.904 C 123.836 19.196 127.645 8.114 127.645 -5.343 L 127.645 -20.483 C 121.906 -12.567 114.881 -6.383 106.569 -1.93 C 98.257 2.523 89.154 4.75 79.259 4.75 C 66 4.75 54.126 1.583 43.637 -4.75 C 33.148 -11.083 24.935 -19.889 18.998 -31.169 C 13.061 -42.45 10.093 -55.313 10.093 -69.76 C 10.093 -84.009 13.012 -96.724 18.85 -107.905 C 24.688 -119.086 32.802 -127.843 43.192 -134.176 C 53.581 -140.509 65.406 -143.675 78.665 -143.675 C 88.758 -143.675 98.01 -141.449 106.421 -136.996 C 114.832 -132.543 121.906 -126.26 127.645 -118.146 L 127.645 -138.926 L 147.831 -138.926 Z M 78.665 -13.655 C 88.164 -13.655 96.625 -16.03 104.046 -20.779 C 111.467 -25.529 117.256 -32.159 121.412 -40.668 C 125.567 -49.178 127.645 -58.776 127.645 -69.463 C 127.645 -80.15 125.567 -89.748 121.412 -98.257 C 117.256 -106.767 111.467 -113.397 104.046 -118.146 C 96.625 -122.896 88.164 -125.271 78.665 -125.271 C 69.364 -125.271 61.052 -122.896 53.73 -118.146 C 46.407 -113.397 40.668 -106.817 36.513 -98.406 C 32.357 -89.995 30.279 -80.447 30.279 -69.76 C 30.279 -58.875 32.357 -49.178 36.513 -40.668 C 40.668 -32.159 46.407 -25.529 53.73 -20.779 C 61.052 -16.03 69.364 -13.655 78.665 -13.655 Z M 354.437 -138.926 L 373.732 -138.926 L 328.611 0 L 307.534 0 L 273.693 -106.569 L 237.181 0 L 216.995 0 L 171.28 -138.926 L 192.653 -138.926 L 228.275 -28.498 L 264.491 -138.926 L 284.083 -138.926 L 319.111 -29.091 L 354.437 -138.926 Z M 409.648 0 L 409.648 -138.926 L 429.833 -138.926 L 429.833 0 L 409.648 0 Z M 564.013 0 L 515.329 -71.541 L 498.409 -55.214 L 498.409 0 L 478.223 0 L 478.223 -215.513 L 498.409 -215.513 L 498.409 -80.743 L 559.263 -138.926 L 585.386 -138.926 L 529.281 -84.899 L 586.573 0 L 564.013 0 Z M 618.632 0 L 618.632 -138.926 L 638.818 -138.926 L 638.818 0 L 618.632 0 Z" transform="matrix(1, 0, 0, 1, 5.52, 250.660004)" style="text-wrap-mode: nowrap;"></path>
          <polygon points="60.34 198.02 84.8 150.91 107.45 198.02 60.34 198.02"></polygon>
          <polygon points="609.737 82.257 634.198 35.147 656.847 82.257 609.737 82.257"></polygon>
          <polygon points="402.151 82.257 426.612 35.147 449.26 82.257 402.151 82.257" style="transform-box: fill-box; transform-origin: 50% 50%;" transform="matrix(-1, 0, 0, -1, -0.000066, 0.000002)"></polygon>
        </g>
        <g id="logo">
          <path d="M 147.831 -138.926 L 147.831 -5.343 C 147.831 7.124 145.258 18.256 140.113 28.052 C 134.968 37.848 127.744 45.517 118.443 51.058 C 109.142 56.599 98.554 59.37 86.68 59.37 L 29.091 59.37 L 29.091 40.965 L 86.68 40.965 C 98.752 40.965 108.598 36.611 116.217 27.904 C 123.836 19.196 127.645 8.114 127.645 -5.343 L 127.645 -20.483 C 121.906 -12.567 114.881 -6.383 106.569 -1.93 C 98.257 2.523 89.154 4.75 79.259 4.75 C 66 4.75 54.126 1.583 43.637 -4.75 C 33.148 -11.083 24.935 -19.889 18.998 -31.169 C 13.061 -42.45 10.093 -55.313 10.093 -69.76 C 10.093 -84.009 13.012 -96.724 18.85 -107.905 C 24.688 -119.086 32.802 -127.843 43.192 -134.176 C 53.581 -140.509 65.406 -143.675 78.665 -143.675 C 88.758 -143.675 98.01 -141.449 106.421 -136.996 C 114.832 -132.543 121.906 -126.26 127.645 -118.146 L 127.645 -138.926 L 147.831 -138.926 Z M 78.665 -13.655 C 88.164 -13.655 96.625 -16.03 104.046 -20.779 C 111.467 -25.529 117.256 -32.159 121.412 -40.668 C 125.567 -49.178 127.645 -58.776 127.645 -69.463 C 127.645 -80.15 125.567 -89.748 121.412 -98.257 C 117.256 -106.767 111.467 -113.397 104.046 -118.146 C 96.625 -122.896 88.164 -125.271 78.665 -125.271 C 69.364 -125.271 61.052 -122.896 53.73 -118.146 C 46.407 -113.397 40.668 -106.817 36.513 -98.406 C 32.357 -89.995 30.279 -80.447 30.279 -69.76 C 30.279 -58.875 32.357 -49.178 36.513 -40.668 C 40.668 -32.159 46.407 -25.529 53.73 -20.779 C 61.052 -16.03 69.364 -13.655 78.665 -13.655 Z M 354.437 -138.926 L 373.732 -138.926 L 328.611 0 L 307.534 0 L 273.693 -106.569 L 237.181 0 L 216.995 0 L 171.28 -138.926 L 192.653 -138.926 L 228.275 -28.498 L 264.491 -138.926 L 284.083 -138.926 L 319.111 -29.091 L 354.437 -138.926 Z M 409.648 0 L 409.648 -138.926 L 429.833 -138.926 L 429.833 0 L 409.648 0 Z M 564.013 0 L 515.329 -71.541 L 498.409 -55.214 L 498.409 0 L 478.223 0 L 478.223 -215.513 L 498.409 -215.513 L 498.409 -80.743 L 559.263 -138.926 L 585.386 -138.926 L 529.281 -84.899 L 586.573 0 L 564.013 0 Z M 618.632 0 L 618.632 -138.926 L 638.818 -138.926 L 638.818 0 L 618.632 0 Z" transform="matrix(1, 0, 0, 1, 5.52, 250.660004)" style="text-wrap-mode: nowrap;"></path>
          <polygon points="60.34 198.02 84.8 150.91 107.45 198.02 60.34 198.02"></polygon>
          <polygon points="609.737 82.257 634.198 35.147 656.847 82.257 609.737 82.257"></polygon>
          <polygon points="402.151 82.257 426.612 35.147 449.26 82.257 402.151 82.257" style="transform-box: fill-box; transform-origin: 50% 50%;" transform="matrix(-1, 0, 0, -1, -0.000066, 0.000002)"></polygon>
        </g>
</svg>
